<svg width="424" height="251" viewBox="0 0 424 251" fill="none" xmlns="http://www.w3.org/2000/svg">
<g clip-path="url(#clip0_2404_268)">
<path d="M92.9623 216.132L89.5123 226.562C89.0823 227.862 87.8723 228.732 86.5023 228.732C84.7523 228.732 83.3323 230.152 83.3323 231.902V235.782H87.2323H112.692H138.152H142.052V231.902C142.052 230.152 140.632 228.732 138.882 228.732C137.512 228.732 136.302 227.852 135.872 226.562L132.422 216.132C131.982 214.812 130.742 213.912 129.352 213.912H96.0123C94.6423 213.912 93.4023 214.812 92.9623 216.132Z" stroke="#001952" stroke-width="3" stroke-miterlimit="10" stroke-linecap="round" stroke-linejoin="round"/>
<path d="M140.512 229.552H84.1523" stroke="#001952" stroke-width="3" stroke-miterlimit="10" stroke-linecap="round" stroke-linejoin="round"/>
<path d="M56.4124 146.242C57.4524 149.182 58.4724 152.692 59.0324 154.712C59.3424 155.822 59.3424 156.992 58.9924 158.092C58.1424 160.702 56.8924 163.102 55.7024 165.022C53.9924 167.792 50.1124 168.212 47.8424 165.882C43.5924 161.522 39.4524 155.232 37.2424 151.682C36.1924 149.992 36.4224 147.802 37.8124 146.392C45.1224 138.952 57.3024 136.122 63.0524 135.162C64.9924 134.842 66.9624 135.512 68.2924 136.972L72.1624 141.202C73.9724 143.182 76.5224 144.322 79.2124 144.352L86.4424 144.432C88.5024 144.452 90.1424 146.192 90.0024 148.252C89.1724 160.822 81.5024 165.622 74.5224 167.362C73.2224 167.682 72.2424 168.742 72.0124 170.062L68.9924 174.952C68.2724 176.812 68.1124 178.842 68.5224 180.792L68.8124 182.152C70.3824 189.552 70.6324 197.172 69.5524 204.652L66.7024 223.022C66.4024 224.932 67.8824 226.652 69.8124 226.652H70.8524C72.5324 226.652 73.8224 228.142 73.5724 229.812L72.6324 236.132H57.7524C55.0524 236.132 52.9724 233.742 53.3424 231.062L55.6624 204.182" stroke="#001952" stroke-width="3" stroke-miterlimit="10" stroke-linecap="round" stroke-linejoin="round"/>
<path d="M69.2022 152.352C70.8149 152.352 72.1222 151.045 72.1222 149.432C72.1222 147.82 70.8149 146.512 69.2022 146.512C67.5896 146.512 66.2822 147.82 66.2822 149.432C66.2822 151.045 67.5896 152.352 69.2022 152.352Z" fill="#001952"/>
<path d="M82.5223 144.302L80.1123 144.782C80.1123 144.782 82.7823 152.572 89.5023 151.242L88.9823 148.612C88.3823 145.632 85.4923 143.702 82.5223 144.302Z" fill="#001952"/>
<path d="M79.6523 157.352C83.0023 159.042 87.0823 158.152 88.7723 154.802Z" fill="white"/>
<path d="M79.6523 157.352C83.0023 159.042 87.0823 158.152 88.7723 154.802" stroke="#001952" stroke-width="3" stroke-miterlimit="10" stroke-linecap="round" stroke-linejoin="round"/>
<path d="M47.8323 165.882C47.8323 165.882 45.6323 185.682 24.6323 196.322C15.8223 200.782 11.8723 213.832 13.4523 224.562C5.88231 227.612 5.61231 221.552 5.61231 221.552C5.61231 221.552 -1.77769 224.522 0.402309 231.442C1.87231 236.092 9.98231 235.712 16.8723 234.192L16.8823 234.202C17.8923 235.412 19.3823 236.112 20.9623 236.112H25.8523H36.1123H48.6423C49.9923 236.112 51.1523 235.122 51.3423 233.782L51.9323 229.802C52.1823 228.142 50.8923 226.642 49.2123 226.642H48.1723H41.5523C40.1323 226.642 39.3723 224.942 40.3523 223.902C42.4323 221.702 44.5923 217.742 45.4123 210.602" stroke="#001952" stroke-width="3" stroke-miterlimit="10" stroke-linecap="round" stroke-linejoin="round"/>
<path d="M23.3323 197.662C26.3123 200.152 29.4923 201.132 33.6823 201.132C43.1623 201.132 50.8523 193.442 50.8523 183.962C50.8523 179.222 49.5723 175.612 46.4723 172.502" stroke="#001952" stroke-width="3" stroke-miterlimit="10" stroke-linecap="round" stroke-linejoin="round"/>
<path d="M210.672 65.5822C210.672 65.5822 195.742 64.9722 192.212 67.4922C188.682 70.0122 180.892 82.5822 182.802 95.4422C184.702 108.302 193.182 160.702 193.182 160.702L193.452 215.712L213.582 214.712L216.982 162.672" stroke="#001952" stroke-width="3" stroke-miterlimit="10" stroke-linecap="round" stroke-linejoin="round"/>
<path d="M252.322 197.902C250.812 196.922 218.042 191.712 216.332 214.412C214.622 237.112 254.692 238.372 255.822 238.382C256.962 238.402 329.012 239.142 329.012 239.142L328.892 214.222L252.322 197.902Z" stroke="#001952" stroke-width="3" stroke-miterlimit="10" stroke-linecap="round" stroke-linejoin="round"/>
<path d="M314.132 159.302C314.132 159.302 297.552 158.992 293.292 171.282C289.032 183.572 296.892 195.662 314.132 206.862C331.372 218.052 378.262 230.722 378.262 230.722L389.112 214.192C389.112 214.182 326.702 160.532 314.132 159.302Z" stroke="#001952" stroke-width="3" stroke-miterlimit="10" stroke-linecap="round" stroke-linejoin="round"/>
<path d="M379.522 228.802C379.522 228.802 396.672 245.812 405.782 248.902C411.432 250.822 418.922 251.242 422.112 246.782C425.162 242.522 424.362 232.822 416.112 228.802C399.232 220.572 387.672 216.392 387.672 216.392" stroke="#001952" stroke-width="3" stroke-miterlimit="10" stroke-linecap="round" stroke-linejoin="round"/>
<path d="M329.192 235.092C332.582 234.682 348.312 241.952 357.562 241.722C366.802 241.482 374.642 238.572 373.072 229.262" stroke="#001952" stroke-width="3" stroke-miterlimit="10" stroke-linecap="round" stroke-linejoin="round"/>
<path d="M244.022 71.6921C244.022 71.6921 282.122 87.5321 288.522 98.0821C294.932 108.632 349.302 181.942 349.302 181.942" stroke="#001952" stroke-width="3" stroke-miterlimit="10" stroke-linecap="round" stroke-linejoin="round"/>
<path d="M275.692 127.322L305.462 159.302" stroke="#001952" stroke-width="3" stroke-miterlimit="10" stroke-linecap="round" stroke-linejoin="round"/>
<path d="M275.692 127.322L291.952 173.092" stroke="#001952" stroke-width="3" stroke-miterlimit="10" stroke-linecap="round" stroke-linejoin="round"/>
<path d="M243.282 71.2022L243.392 61.3022" stroke="#001952" stroke-width="3" stroke-miterlimit="10" stroke-linecap="round" stroke-linejoin="round"/>
<path d="M187.352 242.552C187.352 242.552 206.592 239.032 208.792 235.522C210.992 232.012 210.992 214.842 210.992 214.842" stroke="#001952" stroke-width="3" stroke-miterlimit="10" stroke-linecap="round" stroke-linejoin="round"/>
<path d="M197.272 216.152C197.072 218.352 196.692 227.292 196.692 227.292C196.692 227.292 164.412 226.972 162.292 236.802L193.072 236.212" stroke="#001952" stroke-width="3" stroke-miterlimit="10" stroke-linecap="round" stroke-linejoin="round"/>
<path d="M210.912 64.8921C213.352 68.6921 215.842 71.7721 219.652 73.1721C219.652 73.1721 229.952 72.0521 238.282 56.6721" stroke="#001952" stroke-width="3" stroke-miterlimit="10" stroke-linecap="round" stroke-linejoin="round"/>
<path d="M201.962 36.572C201.962 36.572 203.782 53.822 210.882 64.892" stroke="#001952" stroke-width="3" stroke-miterlimit="10" stroke-linecap="round" stroke-linejoin="round"/>
<path d="M215.642 42.8521C215.642 42.8521 216.002 51.092 216.002 55.192C216.002 55.192 216.782 55.152 220.792 54.812" stroke="#001952" stroke-width="3" stroke-miterlimit="10" stroke-linecap="round" stroke-linejoin="round"/>
<path d="M218.212 61.662C218.212 61.662 223.642 62.3721 226.562 59.1021" stroke="#001952" stroke-width="3" stroke-miterlimit="10" stroke-linecap="round" stroke-linejoin="round"/>
<path d="M224.982 44.8222C226.385 44.8222 227.522 43.685 227.522 42.2822C227.522 40.8794 226.385 39.7422 224.982 39.7422C223.58 39.7422 222.442 40.8794 222.442 42.2822C222.442 43.685 223.58 44.8222 224.982 44.8222Z" fill="#001952"/>
<path d="M208.952 47.5221C210.355 47.5221 211.492 46.3849 211.492 44.9821C211.492 43.5793 210.355 42.4421 208.952 42.4421C207.55 42.4421 206.412 43.5793 206.412 44.9821C206.412 46.3849 207.55 47.5221 208.952 47.5221Z" fill="#001952"/>
<path d="M237.982 38.3021C237.982 38.3021 242.592 30.9721 245.842 31.7221C248.412 32.3221 248.462 38.9021 245.752 44.4521" stroke="#001952" stroke-width="3" stroke-miterlimit="10" stroke-linecap="round" stroke-linejoin="round"/>
<path d="M201.772 35.6321C197.352 34.4221 192.972 30.3521 194.052 23.1821C195.562 13.1221 201.962 16.5921 205.592 7.06214C208.502 -0.577864 218.622 1.03214 224.902 2.72214C231.182 4.41214 240.102 -4.65786 245.772 3.36214C251.442 11.3821 251.552 16.8721 254.222 18.7021C256.892 20.5321 266.782 38.2521 243.392 61.2921" stroke="#001952" stroke-width="3" stroke-miterlimit="10" stroke-linecap="round" stroke-linejoin="round"/>
<path d="M237.982 37.2321C237.982 37.2321 232.842 34.2821 228.302 31.1021C221.292 26.1821 215.582 31.9821 207.882 36.1821C206.332 37.0321 204.042 36.2421 201.772 35.6121" stroke="#001952" stroke-width="3" stroke-miterlimit="10" stroke-linecap="round" stroke-linejoin="round"/>
<path d="M245.032 196.692C245.032 196.692 281.902 199.362 294.302 186.962" stroke="#001952" stroke-width="3" stroke-miterlimit="10" stroke-linecap="round" stroke-linejoin="round"/>
<path d="M203.492 99.0422C203.492 99.0422 201.092 131.842 201.962 136.982C202.822 142.122 204.332 148.152 210.992 151.492C217.652 154.832 226.242 199.752 226.242 199.752" stroke="#001952" stroke-width="3" stroke-miterlimit="10" stroke-linecap="round" stroke-linejoin="round"/>
<path d="M241.962 50.1422C243.387 50.1422 244.542 48.9871 244.542 47.5622C244.542 46.1373 243.387 44.9822 241.962 44.9822C240.537 44.9822 239.382 46.1373 239.382 47.5622C239.382 48.9871 240.537 50.1422 241.962 50.1422Z" fill="#001952"/>
<path d="M217.462 73.1721L220.322 96.8922C220.322 96.8922 222.782 113.922 227.472 114.452C232.162 114.982 240.042 103.162 243.032 93.6822L243.282 71.2021" stroke="#001952" stroke-width="3" stroke-miterlimit="10" stroke-linecap="round" stroke-linejoin="round"/>
</g>
<defs>
<clipPath id="clip0_2404_268">
<rect width="423.747" height="250.278" fill="white"/>
</clipPath>
</defs>
</svg>
